# xmcd
#
# Track frame offsets: 
#        150
#        9066
#        18852
#        30068
#        43126
#        53354
#        63539
#        75169
#        86366
#        98270
#
# Disc length: 1441 seconds
#
# Revision: 6
# Processed by: cddbd v1.5.2PL0 Copyright (c) Steve Scherf et al.
# Submitted via: ExactAudioCopyFreeDBPlugin 1.0
#
DISCID=4e059f0a
DTITLE=Elvis Presley - The Perfect Blues Collection [disc 6] Elivis Pr
DTITLE=esley^ Elvis Presley for LP Fans Only
DYEAR=2011
DGENRE=Blues
TTITLE0=That's All Right
TTITLE1=Lawdy Miss Clawdy
TTITLE2=Mystery Train
TTITLE3=Playing for Keeps
TTITLE4=Poor Boy
TTITLE5=My Baby Left Me
TTITLE6=I Was the One
TTITLE7=Shake Rattle and Roll
TTITLE8=I'm Left You're Right She's Gone
TTITLE9=You're a Heartbreaker
EXTD=
EXTT0=
EXTT1=
EXTT2=
EXTT3=
EXTT4=
EXTT5=
EXTT6=
EXTT7=
EXTT8=
EXTT9=
PLAYORDER=
